<svg width="57" height="8" viewBox="0 0 57 8" fill="none" xmlns="http://www.w3.org/2000/svg">
<path d="M0 0H29.206V1.7192H0V0ZM6.02575 1.93696H7.80456V8H6.02575V1.93696Z" fill="white"/>
<path d="M49.529 0.0687679H54.9766C55.0137 0.0687679 55.073 0.206304 55.1545 0.481375V1.7192C55.1545 1.78032 55.1248 1.81089 55.0655 1.81089H49.529C49.4697 1.81089 49.44 1.78032 49.44 1.7192V0.160458C49.4474 0.0993314 49.4771 0.0687679 49.529 0.0687679ZM30.1065 1.90258H31.663C31.7223 1.91022 31.7519 1.94078 31.7519 1.99427V6.12034L31.7074 6.21203L31.7964 6.25788H54.9766C55.0211 6.25788 55.0804 6.31901 55.1545 6.44126V7.90831C55.1545 7.96944 55.1248 8 55.0655 8H30.1065C30.0472 8 30.0176 7.96944 30.0176 7.90831V1.99427C30.025 1.93314 30.0546 1.90258 30.1065 1.90258ZM57 1.7765V6.38395H55.0655V1.7765H57Z" fill="white"/>
</svg>
