<svg width="19" height="26" viewBox="0 0 19 26" fill="none" xmlns="http://www.w3.org/2000/svg">
<path d="M4.47 7.49801C3.924 8.74601 3.56 9.91601 3.352 10.93C4.73 9.96801 5.874 8.74601 6.784 7.49801H4.47ZM8.604 2.06401C8.526 2.06401 8.448 2.09001 8.344 2.11601C8.136 2.19401 7.824 2.37601 7.486 2.68801C6.81 3.31201 6.03 4.43001 5.25 5.91201C5.172 6.06801 5.094 6.22401 5.016 6.35401C5.874 6.35401 6.706 6.35401 7.46 6.38001H7.538C7.642 6.19801 7.772 5.99001 7.876 5.80801C8.422 4.76801 8.76 3.78001 8.864 3.07801C8.916 2.71401 8.89 2.42801 8.864 2.27201C8.838 2.11601 8.786 2.11601 8.786 2.11601C8.734 2.09001 8.682 2.06401 8.604 2.06401ZM10.268 7.65401C10.138 7.62801 9.904 7.60201 9.644 7.57601C9.28 7.55001 8.786 7.55001 8.24 7.52401C7.044 9.37001 5.354 11.216 3.17 12.464V12.802C3.17 13.348 3.222 13.79 3.326 14.128C3.482 14.596 3.69 14.856 3.976 14.986C4.184 15.09 4.47 15.142 4.86 15.142C5.38 15.142 6.056 15.038 6.862 14.726C8.24 14.206 10.008 13.244 12.062 11.658C12.166 11.58 12.322 11.528 12.426 11.528C12.764 11.528 13.05 11.788 13.05 12.126C13.05 12.282 12.92 12.516 12.79 12.62C10.658 14.258 8.838 15.298 7.278 15.87C6.394 16.208 5.562 16.364 4.86 16.364C4.34 16.364 3.872 16.286 3.456 16.078C2.832 15.792 2.416 15.22 2.182 14.518C2.026 13.998 1.922 13.426 1.922 12.776C1.922 12.62 1.948 12.438 1.948 12.282C1.948 12.256 1.922 12.204 1.922 12.152C1.922 12.074 1.948 11.97 1.974 11.892C2.104 10.618 2.494 9.11001 3.17 7.49801C2.598 7.49801 2.052 7.52401 1.506 7.52401H1.48C1.168 7.52401 0.907999 7.26401 0.907999 6.95201C0.907999 6.64001 1.168 6.38001 1.48 6.38001C2.182 6.35401 2.936 6.35401 3.664 6.35401C3.82 6.01601 3.976 5.70401 4.158 5.36601C4.964 3.80601 5.822 2.58401 6.654 1.80401C7.07 1.41401 7.486 1.12801 7.928 0.97201C8.136 0.89401 8.552 0.84201 8.552 0.84201C8.578 0.84201 8.63 0.86801 8.656 0.86801C8.89 0.86801 9.124 0.920009 9.332 1.02401C9.722 1.23201 9.956 1.59601 10.06 1.98601C10.112 2.16801 10.138 2.37601 10.138 2.55801C10.138 2.79201 10.112 3.00001 10.06 3.23401C9.93 4.14401 9.54 5.21001 8.942 6.35401C8.942 6.38001 8.916 6.38001 8.916 6.40601C9.202 6.40601 9.488 6.43201 9.722 6.45801C10.008 6.48401 10.242 6.48401 10.424 6.51001C10.528 6.51001 10.606 6.53601 10.684 6.56201C10.762 6.58801 10.84 6.53601 11.048 6.74401C11.152 6.84801 11.23 7.03001 11.23 7.16001C11.23 7.47201 10.97 7.73201 10.658 7.73201C10.502 7.73201 10.424 7.68001 10.268 7.65401Z" fill="#B05B60"/>
<path d="M10.7033 19.12C9.6373 20.238 8.8573 21.2 8.4673 21.824C7.9733 22.604 7.7393 23.202 7.6873 23.566C7.6613 23.644 7.6613 23.67 7.6613 23.722C7.7393 23.696 7.8433 23.67 7.9733 23.566C8.3113 23.28 8.7533 22.76 9.2213 21.954C9.7933 20.966 10.2873 20.03 10.7033 19.12ZM18.0353 11.528C18.3473 11.554 18.6333 11.814 18.6333 12.126C18.6333 12.308 18.5033 12.542 18.3473 12.646C16.2413 14.128 14.4213 15.61 12.9133 16.988C12.3413 18.626 11.4833 20.55 10.2873 22.578C9.7673 23.462 9.2473 24.086 8.7273 24.502C8.3633 24.814 7.9733 25.022 7.5573 25.022C7.4013 25.022 7.2453 24.996 7.0893 24.918C6.8033 24.788 6.5693 24.528 6.4913 24.242C6.4653 24.112 6.4393 23.982 6.4393 23.852C6.4393 23.696 6.4653 23.54 6.4913 23.358C6.5953 22.734 6.9073 22.032 7.4533 21.174C8.1813 20.03 9.7153 18.288 11.8733 16.286C12.0293 15.818 12.1593 15.35 12.2633 14.96C12.4193 14.284 12.4973 13.712 12.4973 13.322C12.4973 13.192 12.4713 13.088 12.4713 13.01C12.4453 12.828 12.3933 12.776 12.3933 12.75C12.0553 12.75 11.7953 12.49 11.7953 12.152C11.7953 11.84 12.0553 11.554 12.3673 11.528H12.4193C12.7313 11.528 13.0953 11.71 13.3033 11.944C13.5373 12.204 13.6153 12.49 13.6673 12.828C13.6933 12.984 13.6933 13.14 13.6933 13.296C13.6933 13.738 13.6153 14.258 13.5113 14.83C14.7593 13.79 16.1373 12.698 17.6713 11.632C17.7493 11.58 17.9053 11.528 18.0093 11.528H18.0353ZM13.2253 9.47401C13.5633 9.47401 13.8493 9.76001 13.8493 10.098C13.8493 10.436 13.5633 10.696 13.2253 10.696C12.8873 10.696 12.6273 10.436 12.6273 10.098C12.6273 9.76001 12.8873 9.47401 13.2253 9.47401Z" fill="#B05B60"/>
</svg>
