<svg width="48" height="48" viewBox="0 0 48 48" fill="none" xmlns="http://www.w3.org/2000/svg">
<path fill-rule="evenodd" clip-rule="evenodd" d="M22.7743 4H30.4207C34.5538 4 37.9045 7.3506 37.9045 11.4838C37.9045 15.617 34.5539 18.9676 30.4207 18.9676H22.7743V4ZM25.2257 6.45139V16.5162H30.4207C33.2 16.5162 35.4531 14.2631 35.4531 11.4838C35.4531 8.70447 33.2 6.45139 30.4207 6.45139H25.2257Z" fill="white"/>
<path fill-rule="evenodd" clip-rule="evenodd" d="M10.0956 11.4838C10.0956 7.3506 13.4462 4 17.5794 4H25.2257V18.9676H17.5794C13.4462 18.9676 10.0956 15.617 10.0956 11.4838ZM17.5794 6.45139C14.8 6.45139 12.5469 8.70447 12.5469 11.4838C12.5469 14.2631 14.8 16.5162 17.5794 16.5162H22.7743V6.45139H17.5794Z" fill="white"/>
<path fill-rule="evenodd" clip-rule="evenodd" d="M10.0956 24.0001C10.0956 19.8669 13.4462 16.5164 17.5794 16.5164H25.2257V31.4839H17.5794C13.4462 31.4839 10.0956 28.1333 10.0956 24.0001ZM17.5794 18.9677C14.8 18.9677 12.5469 21.2208 12.5469 24.0001C12.5469 26.7795 14.8 29.0326 17.5794 29.0326H22.7743V18.9677H17.5794Z" fill="white"/>
<path fill-rule="evenodd" clip-rule="evenodd" d="M10.0956 36.5162C10.0956 32.383 13.4462 29.0324 17.5794 29.0324H25.2257V36.4349C25.2257 40.6232 21.7875 44 17.6197 44C13.4968 44 10.0956 40.6596 10.0956 36.5162ZM17.5794 31.4838C14.8 31.4838 12.5469 33.7369 12.5469 36.5162C12.5469 39.2853 14.8301 41.5486 17.6197 41.5486C20.4542 41.5486 22.7743 39.2489 22.7743 36.4349V31.4838H17.5794Z" fill="white"/>
<path fill-rule="evenodd" clip-rule="evenodd" d="M22.7743 24.0001C22.7743 19.8669 26.1249 16.5164 30.2581 16.5164H30.4207C34.5538 16.5164 37.9045 19.8669 37.9045 24.0001C37.9045 28.1333 34.5539 31.4839 30.4207 31.4839H30.2581C26.1249 31.4839 22.7743 28.1333 22.7743 24.0001ZM30.2581 18.9677C27.4788 18.9677 25.2257 21.2208 25.2257 24.0001C25.2257 26.7795 27.4788 29.0326 30.2581 29.0326H30.4207C33.2 29.0326 35.4531 26.7795 35.4531 24.0001C35.4531 21.2208 33.2 18.9677 30.4207 18.9677H30.2581Z" fill="white"/>
</svg>
