<svg width="55" height="16" viewBox="0 0 55 16" fill="none" xmlns="http://www.w3.org/2000/svg">
<path d="M39.4189 0.457031H50.4248C50.4997 0.457031 50.6195 0.726562 50.7842 1.26562V3.69141C50.7842 3.8112 50.7243 3.87109 50.6045 3.87109H39.4189C39.2992 3.87109 39.2393 3.8112 39.2393 3.69141V0.636719C39.2542 0.516927 39.3141 0.457031 39.4189 0.457031ZM0.179688 4.05078H3.32422C3.44401 4.06576 3.50391 4.12565 3.50391 4.23047V12.3164L3.41406 12.4961L3.59375 12.5859H50.4248C50.5146 12.5859 50.6344 12.7057 50.7842 12.9453V15.8203C50.7842 15.9401 50.7243 16 50.6045 16H0.179688C0.0598958 16 0 15.9401 0 15.8203V4.23047C0.014974 4.11068 0.0748698 4.05078 0.179688 4.05078ZM54.5127 3.80371V12.833H50.6045V3.80371H54.5127Z" fill="white"/>
</svg>
