<svg width="1517" height="145" viewBox="0 0 1517 145" fill="none" xmlns="http://www.w3.org/2000/svg">
<path d="M61.5759 142V39.2101H0.585938V0.640137H176.526V39.2101H115.536V142H61.5759Z" fill="white"/>
<path d="M240.663 0.640137V31.2301H188.983V0.640137H240.663ZM240.663 39.7801V142H188.983V39.7801H240.663Z" fill="white"/>
<path d="M307.08 39.7801V58.5901C308.98 55.8035 311.323 53.0801 314.11 50.4201C317.023 47.6335 321.773 44.7835 328.36 41.8701C334.946 38.9568 342.103 37.5001 349.83 37.5001H352.11C360.216 37.5001 367.183 38.8301 373.01 41.4901C378.836 44.0235 383.27 47.5701 386.31 52.1301C389.35 56.5635 391.566 61.3135 392.96 66.3801C394.353 71.3201 395.05 76.7668 395.05 82.7201V92.9801H344.89V89.3701C344.89 83.1635 343.37 78.1601 340.33 74.3601C337.416 70.4335 332.793 68.4701 326.46 68.4701C320.506 68.4701 315.82 70.4968 312.4 74.5501C309.106 78.6035 307.46 83.9235 307.46 90.5101V142H255.78V39.7801H307.08Z" fill="white"/>
<path d="M491.197 142H447.497C429.384 142 420.327 132.31 420.327 112.93V71.1301H400.757V39.7801H420.327V9.95013H471.627V39.7801H491.197V71.1301H471.627V101.34C471.627 104.633 472.134 106.977 473.147 108.37C474.287 109.637 476.63 110.27 480.177 110.27H491.197V142Z" fill="white"/>
<path d="M503.485 142V0.640137H555.165V57.6401C568.591 44.2135 586.071 37.5001 607.605 37.5001H608.745C617.865 37.5001 625.781 38.7668 632.495 41.3001C639.335 43.7068 644.591 46.9368 648.265 50.9901C651.938 54.9168 654.598 59.0335 656.245 63.3401C658.018 67.5201 658.905 71.8268 658.905 76.2601V142H607.035V93.1701C607.035 85.9501 605.008 80.2501 600.955 76.0701C597.028 71.7635 590.821 69.6101 582.335 69.6101C573.848 69.6101 567.198 71.8901 562.385 76.4501C557.571 81.0101 555.165 87.0268 555.165 94.5001V142H503.485Z" fill="white"/>
<path d="M815.687 144.09H804.097C791.304 144.09 780.031 142.633 770.277 139.72C760.524 136.807 752.861 133.197 747.287 128.89C741.841 124.457 737.344 119.263 733.797 113.31C730.377 107.23 728.097 101.657 726.957 96.5901C725.944 91.3968 725.437 86.0135 725.437 80.4401V79.3001H778.447C780.094 95.5135 790.481 103.62 809.607 103.62H811.127C822.021 103.62 829.937 100.77 834.877 95.0701C839.944 89.3701 842.477 81.6435 842.477 71.8901V0.640137H896.437V73.0301C896.437 77.7168 896.184 82.1501 895.677 86.3301C895.171 90.5101 894.157 95.0701 892.637 100.01C891.117 104.823 889.154 109.32 886.747 113.5C884.341 117.553 881.047 121.543 876.867 125.47C872.687 129.27 867.811 132.5 862.237 135.16C856.791 137.82 850.077 139.973 842.097 141.62C834.117 143.267 825.314 144.09 815.687 144.09Z" fill="white"/>
<path d="M963.553 0.640137V31.2301H911.873V0.640137H963.553ZM963.553 39.7801V142H911.873V39.7801H963.553Z" fill="white"/>
<path d="M1017.43 142L968.98 39.7801H1024.27L1052.39 106.28L1079.18 39.7801H1132.19L1085.64 142H1017.43Z" fill="white"/>
<path d="M1224.99 98.1101V93.7401L1190.79 99.8201C1186.23 100.58 1183 101.593 1181.1 102.86C1179.2 104.127 1178.25 106.027 1178.25 108.56V108.75C1178.25 111.663 1179.46 114.133 1181.86 116.16C1184.4 118.187 1188.58 119.2 1194.4 119.2C1203.52 119.2 1210.87 117.11 1216.44 112.93C1222.14 108.623 1224.99 103.683 1224.99 98.1101ZM1225.94 128.32C1215.56 138.707 1199.6 143.9 1178.06 143.9H1175.97C1160.01 143.9 1148.11 140.733 1140.25 134.4C1132.53 128.067 1128.66 120.277 1128.66 111.03V108.75C1128.66 99.8835 1131.83 93.0435 1138.16 88.2301C1144.62 83.2901 1155.26 80.2501 1170.08 79.1101L1219.29 74.7401C1223.09 74.2335 1224.99 72.5868 1224.99 69.8001C1224.99 68.2801 1224.55 67.0135 1223.66 66.0001C1222.9 64.9868 1220.81 64.1001 1217.39 63.3401C1213.97 62.4535 1209.1 62.0101 1202.76 62.0101H1202C1196.94 62.0101 1192.69 62.3901 1189.27 63.1501C1185.98 63.7835 1183.64 64.7968 1182.24 66.1901C1180.98 67.5835 1180.15 68.6601 1179.77 69.4201C1179.52 70.0535 1179.27 71.0668 1179.01 72.4601H1131.13V71.3201C1131.13 67.9001 1131.39 64.9235 1131.89 62.3901C1132.53 59.8568 1134.11 56.8801 1136.64 53.4601C1139.18 50.0401 1142.6 47.2535 1146.9 45.1001C1151.34 42.9468 1157.8 41.1101 1166.28 39.5901C1174.9 37.9435 1185.03 37.1201 1196.68 37.1201H1207.32C1219.48 37.1201 1230 37.8801 1238.86 39.4001C1247.73 40.7935 1254.44 42.5668 1259 44.7201C1263.56 46.7468 1267.17 49.4068 1269.83 52.7001C1272.49 55.8668 1274.08 58.7168 1274.58 61.2501C1275.22 63.6568 1275.53 66.5701 1275.53 69.9901V107.8C1275.53 110.713 1276.99 112.17 1279.9 112.17H1285.41V142H1242.47C1232.97 142 1227.46 137.44 1225.94 128.32Z" fill="white"/>
<path d="M1294.29 142V39.7801H1345.59V57.8301C1347.49 56.0568 1348.94 54.7268 1349.96 53.8401C1351.1 52.8268 1353.44 51.1168 1356.99 48.7101C1360.66 46.3035 1364.21 44.4668 1367.63 43.2001C1371.05 41.8068 1375.48 40.5401 1380.93 39.4001C1386.5 38.1335 1392.33 37.5001 1398.41 37.5001H1399.55C1408.67 37.5001 1416.58 38.7668 1423.3 41.3001C1430.14 43.7068 1435.39 46.9368 1439.07 50.9901C1442.74 54.9168 1445.4 59.0335 1447.05 63.3401C1448.82 67.5201 1449.71 71.8268 1449.71 76.2601V142H1397.84V93.1701C1397.84 85.9501 1395.81 80.2501 1391.76 76.0701C1387.83 71.7635 1381.62 69.6101 1373.14 69.6101C1364.65 69.6101 1358 71.8901 1353.19 76.4501C1348.37 81.0101 1345.97 87.0268 1345.97 94.5001V142H1294.29Z" fill="white"/>
<path d="M1516.48 0.640137V31.2301H1464.8V0.640137H1516.48ZM1516.48 39.7801V142H1464.8V39.7801H1516.48Z" fill="white"/>
</svg>
