<svg width="489" height="81" viewBox="0 0 489 81" fill="none" xmlns="http://www.w3.org/2000/svg">
<path d="M20.4739 10.841H0.35791V0.355011H52.6809V10.841H32.3509V79H20.4739V10.841Z" fill="white"/>
<path d="M55.7864 29.887H67.7704V79H55.7864V29.887ZM61.6714 20.685C59.4601 20.685 57.6054 19.936 56.1074 18.438C54.6094 16.94 53.8604 15.0853 53.8604 12.874C53.8604 10.8767 54.6094 9.16468 56.1074 7.73801C57.6054 6.31134 59.4601 5.59801 61.6714 5.59801C63.8114 5.59801 65.6304 6.31134 67.1284 7.73801C68.6264 9.16468 69.3754 10.8767 69.3754 12.874C69.3754 15.0853 68.6264 16.94 67.1284 18.438C65.7018 19.936 63.8828 20.685 61.6714 20.685Z" fill="white"/>
<path d="M80.2393 29.887H91.7953V39.517C92.9366 36.2357 94.7913 33.5963 97.3593 31.599C99.9273 29.6017 102.852 28.603 106.133 28.603C108.416 28.603 109.985 28.817 110.841 29.245L109.236 40.908C108.594 40.48 107.203 40.266 105.063 40.266C101.711 40.266 98.6433 41.336 95.8613 43.476C93.1506 45.616 91.7953 49.04 91.7953 53.748V79H80.2393V29.887Z" fill="white"/>
<path d="M120.083 39.303H111.416V29.887H120.083V9.87801L131.746 7.31001V29.887H143.088V39.303H131.746V79H120.083V39.303Z" fill="white"/>
<path d="M149.805 0.355011H161.04V29.887L160.612 38.982C161.967 35.986 164.143 33.525 167.139 31.599C170.135 29.6017 173.63 28.603 177.625 28.603C182.69 28.603 186.577 29.673 189.288 31.813C191.999 33.8817 193.818 36.8063 194.745 40.587C195.672 44.3677 196.136 49.2897 196.136 55.353V79H184.687V55.246C184.687 51.1087 184.437 47.863 183.938 45.509C183.51 43.155 182.583 41.3717 181.156 40.159C179.801 38.9463 177.803 38.34 175.164 38.34C173.024 38.34 170.848 38.982 168.637 40.266C166.497 41.55 164.714 43.4403 163.287 45.937C161.86 48.3623 161.147 51.2513 161.147 54.604V79H149.805V0.355011Z" fill="white"/>
<path d="M243.678 80.07C240.682 80.07 237.65 79.7133 234.583 79C231.515 78.2153 228.947 76.9313 226.879 75.148L231.694 64.127C232.978 65.625 234.404 66.7663 235.974 67.551C237.614 68.2643 239.612 68.621 241.966 68.621C244.177 68.621 245.96 68.2287 247.316 67.444C248.671 66.6593 249.67 65.2327 250.312 63.164C251.025 61.0953 251.382 58.135 251.382 54.283V0.355011H263.259V57.279C263.259 65.2683 261.44 71.082 257.802 74.72C254.235 78.2867 249.527 80.07 243.678 80.07Z" fill="white"/>
<path d="M277.59 29.887H289.574V79H277.59V29.887ZM283.475 20.685C281.264 20.685 279.409 19.936 277.911 18.438C276.413 16.94 275.664 15.0853 275.664 12.874C275.664 10.8767 276.413 9.16468 277.911 7.73801C279.409 6.31134 281.264 5.59801 283.475 5.59801C285.615 5.59801 287.434 6.31134 288.932 7.73801C290.43 9.16468 291.179 10.8767 291.179 12.874C291.179 15.0853 290.43 16.94 288.932 18.438C287.505 19.936 285.686 20.685 283.475 20.685Z" fill="white"/>
<path d="M294.553 29.887H307.714L318.307 52.036L321.731 60.917L325.155 52.036L335.641 29.887H348.481L322.694 79H320.447L294.553 29.887Z" fill="white"/>
<path d="M374.375 80.07C369.952 80.07 365.85 79.0357 362.07 76.967C358.36 74.827 355.364 71.831 353.082 67.979C350.87 64.0557 349.765 59.4903 349.765 54.283C349.765 49.147 350.728 44.653 352.654 40.801C354.651 36.949 357.469 33.953 361.107 31.813C364.745 29.673 369.025 28.603 373.947 28.603C376.8 28.603 379.475 29.1023 381.972 30.101C384.468 31.0997 386.573 32.348 388.285 33.846C389.997 35.2727 391.138 36.6993 391.709 38.126L391.923 29.887H402.944V79H392.03L391.816 70.333C390.603 72.901 388.392 75.1837 385.182 77.181C381.972 79.107 378.369 80.07 374.375 80.07ZM376.301 70.44C380.367 70.44 383.791 69.049 386.573 66.267C389.355 63.4137 390.746 59.7043 390.746 55.139V54.39C390.746 51.3227 390.104 48.5763 388.82 46.151C387.536 43.7257 385.788 41.8353 383.577 40.48C381.365 39.1247 378.94 38.447 376.301 38.447C371.735 38.447 368.204 39.945 365.708 42.941C363.211 45.8657 361.963 49.682 361.963 54.39C361.963 59.1693 363.175 63.057 365.601 66.053C368.097 68.9777 371.664 70.44 376.301 70.44Z" fill="white"/>
<path d="M415.274 29.887H426.616L426.723 38.875C428.078 35.879 430.218 33.418 433.143 31.492C436.067 29.566 439.491 28.603 443.415 28.603C448.479 28.603 452.367 29.673 455.078 31.813C457.788 33.8817 459.607 36.8063 460.535 40.587C461.462 44.3677 461.926 49.2897 461.926 55.353V79H450.37V55.674C450.37 49.468 449.763 45.0097 448.551 42.299C447.338 39.517 444.841 38.126 441.061 38.126C438.921 38.126 436.745 38.8037 434.534 40.159C432.322 41.443 430.468 43.3333 428.97 45.83C427.543 48.3267 426.83 51.2513 426.83 54.604V79H415.274V29.887Z" fill="white"/>
<path d="M474.466 29.887H486.45V79H474.466V29.887ZM480.351 20.685C478.139 20.685 476.285 19.936 474.787 18.438C473.289 16.94 472.54 15.0853 472.54 12.874C472.54 10.8767 473.289 9.16468 474.787 7.73801C476.285 6.31134 478.139 5.59801 480.351 5.59801C482.491 5.59801 484.31 6.31134 485.808 7.73801C487.306 9.16468 488.055 10.8767 488.055 12.874C488.055 15.0853 487.306 16.94 485.808 18.438C484.381 19.936 482.562 20.685 480.351 20.685Z" fill="white"/>
</svg>
