<svg width="204" height="94" viewBox="0 0 204 94" fill="none" xmlns="http://www.w3.org/2000/svg">
<path d="M40.72 92V69.92H0.400002L25.72 0.799988L38.2 5.47999L19.12 57.32H40.72L41.44 37.28H54.76V57.32H67V69.92H54.76V92H40.72Z" fill="white"/>
<path d="M102.852 93.8C97.0119 93.8 92.0519 92.6 87.9719 90.2C83.8919 87.8 80.5719 84.52 78.0119 80.36C75.4519 76.12 73.5719 71.24 72.3719 65.72C71.2519 60.12 70.6919 54.2 70.6919 47.96C70.6919 41.48 71.2519 35.48 72.3719 29.96C73.4919 24.44 75.2919 19.64 77.7719 15.56C80.2519 11.4 83.5319 8.15999 87.6119 5.83999C91.7719 3.51999 96.8519 2.35999 102.852 2.35999C110.852 2.35999 117.172 4.31999 121.812 8.23999C126.452 12.16 129.772 17.56 131.772 24.44C133.852 31.24 134.892 39.08 134.892 47.96C134.892 56.52 133.812 64.28 131.652 71.24C129.572 78.2 126.172 83.72 121.452 87.8C116.812 91.8 110.612 93.8 102.852 93.8ZM102.852 81.56C106.452 81.56 109.372 80.6 111.612 78.68C113.932 76.76 115.692 74.16 116.892 70.88C118.172 67.6 119.052 64 119.532 60.08C120.012 56.08 120.252 52.04 120.252 47.96C120.252 43.48 120.012 39.24 119.532 35.24C119.052 31.24 118.172 27.68 116.892 24.56C115.692 21.44 113.932 19 111.612 17.24C109.372 15.4 106.452 14.48 102.852 14.48C99.2519 14.48 96.2919 15.4 93.9719 17.24C91.6519 19 89.8519 21.44 88.5719 24.56C87.3719 27.68 86.5319 31.24 86.0519 35.24C85.5719 39.24 85.3319 43.48 85.3319 47.96C85.3319 52.04 85.5719 56.08 86.0519 60.08C86.5319 64 87.3719 67.6 88.5719 70.88C89.8519 74.08 91.6519 76.68 93.9719 78.68C96.2919 80.6 99.2519 81.56 102.852 81.56Z" fill="white"/>
<path d="M177.375 92V69.92H137.055L162.375 0.799988L174.855 5.47999L155.775 57.32H177.375L178.095 37.28H191.415V57.32H203.655V69.92H191.415V92H177.375Z" fill="white"/>
</svg>
