<svg width="144" height="111" viewBox="0 0 144 111" fill="none" xmlns="http://www.w3.org/2000/svg">
<path d="M3 3H25.6134C31.5826 3 37.3073 5.37126 41.5282 9.59213C45.749 13.813 48.1203 19.5377 48.1203 25.5069C48.1203 31.4762 45.749 37.2009 41.5282 41.4218C37.3073 45.6426 31.5826 48.0139 25.6134 48.0139H3V3Z" stroke="#0C0A0D" stroke-width="5" stroke-linecap="round" stroke-linejoin="round"/>
<path d="M3 47.9607H40.2455C48.2045 47.9607 55.8374 51.1224 61.4653 56.7502C67.0931 62.378 70.2548 70.011 70.2548 77.9699C70.2548 81.9108 69.4786 85.8131 67.9705 89.454C66.4624 93.0949 64.2519 96.4031 61.4653 99.1897C58.6787 101.976 55.3705 104.187 51.7296 105.695C48.0887 107.203 44.1864 107.979 40.2455 107.979H3V47.9607Z" stroke="#0C0A0D" stroke-width="5" stroke-linecap="round" stroke-linejoin="round"/>
<path d="M114.737 55.463C118.213 55.4136 121.664 56.0557 124.889 57.3518C128.115 58.6479 131.051 60.5723 133.526 63.0131C136.002 65.4538 137.967 68.3623 139.309 71.5693C140.65 74.7764 141.341 78.2181 141.341 81.6945V85.419H88.718V81.6945C88.7178 74.7742 91.4522 68.1341 96.3256 63.2208C101.199 58.3076 107.817 55.5191 114.737 55.463Z" stroke="#0C0A0D" stroke-width="5" stroke-linecap="round" stroke-linejoin="round"/>
<path d="M88.718 85.4722C88.718 88.4254 89.3005 91.3495 90.4323 94.0772C91.564 96.8049 93.2227 99.2825 95.3134 101.368C97.404 103.454 99.8856 105.107 102.616 106.232C105.346 107.357 108.272 107.933 111.225 107.926H126.23" stroke="#0C0A0D" stroke-width="5" stroke-linecap="round" stroke-linejoin="round"/>
</svg>
