<svg width="24" height="27" viewBox="0 0 24 27" fill="none" xmlns="http://www.w3.org/2000/svg">
<path d="M4.66667 12.0001C4.66667 8.54311 4.66667 6.81463 5.74061 5.74069C6.81456 4.66675 8.54303 4.66675 12 4.66675H15.6667C19.1236 4.66675 20.8521 4.66675 21.926 5.74069C23 6.81463 23 8.54311 23 12.0001V18.1112C23 21.5681 23 23.2966 21.926 24.3706C20.8521 25.4445 19.1236 25.4445 15.6667 25.4445H12C8.54303 25.4445 6.81456 25.4445 5.74061 24.3706C4.66667 23.2966 4.66667 21.5681 4.66667 18.1112V12.0001Z" stroke="#FB6A74" stroke-width="2"/>
<path opacity="0.5" d="M4.66667 21.7778C2.64163 21.7778 1 20.1362 1 18.1111V10.7778C1 6.16848 1 3.86385 2.43192 2.43192C3.86385 1 6.16848 1 10.7778 1H15.6667C17.6918 1 19.3333 2.64163 19.3333 4.66667" stroke="#FB6A74" stroke-width="2"/>
</svg>
