<svg width="21" height="21" viewBox="0 0 21 21" fill="none" xmlns="http://www.w3.org/2000/svg">
<path opacity="0.5" fill-rule="evenodd" clip-rule="evenodd" d="M0.807693 12.923C1.25377 12.923 1.61539 13.2847 1.61539 13.7307C1.61539 15.2765 1.6171 16.3547 1.72647 17.1682C1.83271 17.9584 2.02704 18.3768 2.32509 18.6749C2.62314 18.973 3.04161 19.1672 3.83182 19.2735C4.64528 19.3828 5.72341 19.3846 7.26923 19.3846H13.7308C15.2766 19.3846 16.3547 19.3828 17.1682 19.2735C17.9584 19.1672 18.3768 18.973 18.6749 18.6749C18.973 18.3768 19.1673 17.9584 19.2736 17.1682C19.3829 16.3547 19.3846 15.2765 19.3846 13.7307C19.3846 13.2847 19.7462 12.923 20.1923 12.923C20.6384 12.923 21 13.2847 21 13.7307V13.7899C21 15.2627 21 16.4497 20.8745 17.3834C20.7442 18.3528 20.4654 19.1689 19.8172 19.8171C19.1689 20.4654 18.3528 20.7442 17.3835 20.8745C16.4498 21 15.2627 21 13.7899 21H7.21014C5.73735 21 4.55024 21 3.61658 20.8745C2.64723 20.7442 1.83106 20.4654 1.18284 19.8172C0.534617 19.1689 0.255813 18.3528 0.125484 17.3834C-4.25898e-05 16.4497 -2.09742e-05 15.2627 5.64257e-07 13.7899C5.64257e-07 13.7701 5.64257e-07 13.7504 5.64257e-07 13.7307C5.64257e-07 13.2847 0.361621 12.923 0.807693 12.923Z" fill="#FB6A74"/>
<path fill-rule="evenodd" clip-rule="evenodd" d="M10.5 15.6154C10.7268 15.6154 10.943 15.5201 11.0961 15.3527L15.4038 10.6412C15.7048 10.312 15.6819 9.80108 15.3527 9.50008C15.0235 9.19908 14.5126 9.22191 14.2116 9.55112L11.3077 12.7273V0.807692C11.3077 0.36162 10.9461 0 10.5 0C10.0539 0 9.69231 0.36162 9.69231 0.807692V12.7273L6.78842 9.55112C6.48742 9.22191 5.97652 9.19908 5.64731 9.50008C5.31809 9.80108 5.29521 10.312 5.59621 10.6412L9.90392 15.3527C10.057 15.5201 10.2732 15.6154 10.5 15.6154Z" fill="#FB6A74"/>
</svg>
