<svg width="149" height="149" viewBox="0 0 149 149" fill="none" xmlns="http://www.w3.org/2000/svg">
<path d="M103.8 3H45.9095C22.4007 3 3.34314 22.0576 3.34314 45.5663V103.457C3.34314 126.965 22.4007 146.023 45.9095 146.023H103.8C127.308 146.023 146.366 126.965 146.366 103.457V45.5663C146.366 22.0576 127.308 3 103.8 3Z" stroke="#0C0A0D" stroke-width="5" stroke-linecap="round" stroke-linejoin="round"/>
<path d="M74.8546 106.277C92.398 106.277 106.62 92.0548 106.62 74.5114C106.62 56.968 92.398 42.7463 74.8546 42.7463C57.3112 42.7463 43.0895 56.968 43.0895 74.5114C43.0895 92.0548 57.3112 106.277 74.8546 106.277Z" stroke="#0C0A0D" stroke-width="5" stroke-linecap="round" stroke-linejoin="round"/>
<path d="M113.909 42.7463C118.905 42.7463 122.954 38.6966 122.954 33.701C122.954 28.7053 118.905 24.6556 113.909 24.6556C108.914 24.6556 104.864 28.7053 104.864 33.701C104.864 38.6966 108.914 42.7463 113.909 42.7463Z" stroke="#0C0A0D" stroke-width="5" stroke-linecap="round" stroke-linejoin="round"/>
</svg>
