<svg width="149" height="149" viewBox="0 0 149 149" fill="none" xmlns="http://www.w3.org/2000/svg">
<path d="M98.1357 3H50.8871C24.4398 3 3 24.4398 3 50.8871V98.1357C3 124.583 24.4398 146.023 50.8871 146.023H98.1357C124.583 146.023 146.023 124.583 146.023 98.1357V50.8871C146.023 24.4398 124.583 3 98.1357 3Z" stroke="#0C0A0D" stroke-width="5" stroke-linecap="round" stroke-linejoin="round"/>
<path d="M34.978 53.8668V113.46" stroke="#0C0A0D" stroke-width="5" stroke-linecap="round" stroke-linejoin="round"/>
<path d="M62.2737 113.46V83.6632C62.2737 75.7607 65.4129 68.1818 71.0009 62.5939C76.5888 57.006 84.1676 53.8668 92.0701 53.8668C99.9726 53.8668 107.551 57.006 113.139 62.5939C118.727 68.1818 121.867 75.7607 121.867 83.6632V113.46" stroke="#0C0A0D" stroke-width="5" stroke-linecap="round" stroke-linejoin="round"/>
<path d="M34.978 34.7119V33.6477" stroke="#0C0A0D" stroke-width="5" stroke-linecap="round" stroke-linejoin="round"/>
</svg>
