<svg width="22" height="24" viewBox="0 0 22 24" fill="none" xmlns="http://www.w3.org/2000/svg">
<path d="M14.7134 0C11.2346 0 8.41179 2.82282 8.41179 6.30158C8.41179 9.78033 11.2346 12.6032 14.7134 12.6032C18.1921 12.6032 21.0149 9.78033 21.0149 6.30158C21.0149 2.82282 18.1921 0 14.7134 0Z" fill="#FB6A74"/>
<path opacity="0.4" d="M3.90039 13.2123C1.75692 13.2123 0 14.9575 0 17.1127C0 19.2679 1.74521 21.0131 3.90039 21.0131C6.04387 21.0131 7.80084 19.2679 7.80084 17.1127C7.80084 14.9575 6.04387 13.2123 3.90039 13.2123Z" fill="#FB6A74"/>
<path opacity="0.4" d="M15.9193 17.4173C14.1038 17.4173 12.628 18.8931 12.628 20.7086C12.628 22.5241 14.1038 24 15.9193 24C17.7348 24 19.2107 22.5241 19.2107 20.7086C19.2107 18.8931 17.7348 17.4173 15.9193 17.4173Z" fill="#FB6A74"/>
</svg>
