<svg width="147" height="119" viewBox="0 0 147 119" fill="none" xmlns="http://www.w3.org/2000/svg">
<path d="M143.917 16.4124C138.533 18.6458 132.85 20.0798 127.051 20.6691C132.886 17.0465 137.343 11.5781 139.714 5.13237C134.033 8.49914 127.828 10.8911 121.357 12.209C118.832 9.28769 115.701 6.95109 112.182 5.36151C108.663 3.77194 104.84 2.96749 100.979 3.00405C97.2252 2.94068 93.4963 3.62176 90.0076 5.00793C86.5188 6.39411 83.3394 8.4579 80.6529 11.0801C77.9664 13.7022 75.8262 16.8307 74.3559 20.2849C72.8856 23.739 72.1144 27.4503 72.0868 31.2042C71.9712 33.3384 72.2048 35.4771 72.7785 37.536C61.6198 37.2013 50.6674 34.4439 40.6804 29.455C30.6935 24.4661 21.9109 17.3651 14.9415 8.64409C11.9777 12.7318 10.4781 17.6992 10.6849 22.7442C10.7269 27.4761 11.9096 32.1281 14.1326 36.3056C16.3557 40.4831 19.5535 44.0627 23.4548 46.7409C19.0019 46.0669 14.6994 44.6268 10.7381 42.4843V43.4421C10.3458 49.9177 12.3623 56.3097 16.3994 61.3881C20.4366 66.4664 26.2092 69.8724 32.6065 70.9505C30.064 71.5547 27.4475 71.7877 24.8382 71.6422C22.9319 71.7508 21.0217 71.5166 19.1982 70.9505C20.9757 76.6312 24.5084 81.6021 29.2885 85.149C34.0686 88.6958 39.8501 90.636 45.8021 90.6907C35.5026 98.5789 22.8594 102.793 9.88677 102.662C7.57748 102.763 5.26576 102.53 3.02295 101.971C17.7889 111.831 35.2963 116.767 53.0384 116.071C105.874 116.071 129.871 72.3339 129.871 34.982V31.2042C135.431 27.1886 140.194 22.1725 143.917 16.4124Z" stroke="#0C0A0D" stroke-width="5" stroke-linecap="round" stroke-linejoin="round"/>
</svg>
